<svg xmlns="http://www.w3.org/2000/svg" xmlns:xlink="http://www.w3.org/1999/xlink" id="elUQIcry6Ne1" shape-rendering="geometricPrecision" text-rendering="geometricPrecision" project-id="358ce3dc4cb147f5b75815f1f8c420ac" export-id="0238f90a949f490e956b148ed44cd399" cached="false" viewBox="49.98 49.05 269.44 215.54"><path d="M148.157,52.411l-21.848-5.473c-2.737-.673-4.757-2.988-5.052-5.809s1.179-5.515,3.662-6.778l17.176-8.587-18.186-13.64c-2.315-1.726-3.283-4.757-2.357-7.535C122.478,1.81,125.046,0,127.95,0h47.149h13.471h6.736c12.713,0,24.711,5.978,32.331,16.165l24.248,32.331c2.61,3.494,4.041,7.746,4.041,12.124c0,11.156-9.051,20.207-20.207,20.207h-9.051c-7.156,0-14.018-2.821-19.07-7.872l-5.556-5.599h-13.472v9.05c0,10.441,5.389,20.165,14.229,25.722l44.876,28.037c13.513,8.461,21.722,23.237,21.722,39.192c0,25.511-20.67,46.181-46.223,46.181h-14.397-26.942-168.263c-1.389,0-2.778-.169-4.041-.589-3.873-1.179-7.03-4.042-8.546-7.788-.589-1.432-.926-2.905-1.01-4.505-.084-1.557.126-3.073.547-4.504c1.179-3.873,4.041-7.031,7.83-8.588c1.263-.505,2.61-.842,3.999-.926l170.031-15.197c3.494-.295,6.188-3.242,6.188-6.778c0-1.81-.715-3.536-1.978-4.799l-18.691-18.691c-12.629-12.629-19.744-29.763-19.744-47.612v-19.155-23.995v0Zm67.356-21.975c0-.042,0-.084,0-.126s0-.084,0-.126v.252Zm-.548,3.116l-19.533-4.884c-.084.547-.126,1.095-.126,1.642c0,5.599,4.504,10.103,10.103,10.103c4.463,0,8.209-2.862,9.556-6.861ZM55.08,49.043c6.862-6.104,17.007-6.819,24.627-1.726l54.979,36.625v11.619c0,13.808,3.536,27.279,10.103,39.15h-97.665c-2.821,0-5.347-1.768-6.315-4.378s-.21-5.599,1.937-7.451l29.215-25.09-64.24,9.893c-2.947.463-5.852-1.095-7.115-3.789s-.631-5.936,1.6-7.914L55.08,49.043Z" transform="translate(50.021609 49.0545)" fill="#fff"/></svg>