<?xml version="1.0" encoding="UTF-8"?>
<svg width="752pt" height="752pt" version="1.1" viewBox="0 0 752 752" xmlns="http://www.w3.org/2000/svg">
 <g>
  <rect width="752" height="752" fill="#9add89"/>
  <path d="m451.06 434.54c-2.2031 0-3.9961 1.7734-4.0234 3.9805v61.566c-1.5156-0.42578-3.0781-0.89844-4.7344-1.4219-24.816-8.3359-50.863-8.1445-68.102-8.0508h-5.1641c-32.867 0-46.363 3.6484-59.434 8.0508-1.5625 0.51953-3.0781 0.99609-4.7344 1.4219v-61.566c-0.027344-2.1875-1.793-3.9531-3.9805-3.9805-25.527 0-46.457 28.414-48.543 64.977-6.6758-2.2734-8.9492-4.4062-8.9492-5.1133h-7.957c0 6.7734 8.3828 11.934 24.957 15.344 6.0977 1.2383 12.301 1.8555 18.52 1.8438 11.281-0.046876 22.477-1.9336 33.148-5.5859 12.836-4.3086 25.148-7.625 56.828-7.625h5.3516c16.719 0 41.961-0.28516 65.496 7.625h0.003906c16.602 5.8125 34.449 7.1055 51.715 3.7422 16.574-3.4102 24.957-8.5703 24.957-15.344h-7.8125c0 0.61719-2.2266 2.7461-8.9961 5.0195-2.1328-36.23-23.066-64.883-48.547-64.883z"/>
  <path d="m474.46 313.54h-196.91c-0.91406 0.066406-1.832 0.066406-2.7461 0-4.0508-0.6875-7.7266-2.7773-10.395-5.9023-2.668-3.125-4.1484-7.0859-4.1914-11.191h-8.0039c0.054688 5.3281 1.7734 10.508 4.9141 14.812 3.1406 4.3047 7.5508 7.5195 12.609 9.1953v0.75781c0 14.207 14.207 25.715 31.211 25.715 17 0 30.926-11.27 31.258-25.195h87.613c0.33203 13.922 14.207 25.195 31.258 25.195 17.051 0 31.258-11.555 31.258-25.715v-0.71094h-0.007813c5.0781-1.6602 9.5039-4.8789 12.648-9.1953 3.1445-4.3203 4.8516-9.5195 4.875-14.859h-8.0508c0 4.5938-1.8438 8.9922-5.1172 12.215-2.5898 2.5234-5.8984 4.1758-9.4688 4.7383-0.91406 0.10547-1.832 0.15625-2.75 0.14062zm-173.52 25.195c-12.598 0-22.828-7.6719-23.156-17.191h46.41c-0.28516 9.5195-10.609 17.191-23.254 17.191zm150.12 0c-12.645 0-22.875-7.6719-23.254-17.191h46.457c-0.375 9.5195-10.605 17.191-23.203 17.191z"/>
  <path d="m311.88 300.23c0.92969 0.066407 1.8633 0.066407 2.793 0h126.35c0.94531 0.085938 1.8984 0.085938 2.8438 0 4.1211-0.69922 7.8672-2.8281 10.578-6.0156 2.7109-3.1875 4.2148-7.2266 4.2422-11.41 0.125-1.1367-0.24219-2.2734-1.0039-3.125-0.76172-0.85156-1.8516-1.3359-2.9961-1.3359s-2.2344 0.48438-2.9961 1.3359c-0.76562 0.85156-1.1289 1.9883-1.0078 3.125 0.015625 2.5625-1.0078 5.0234-2.8398 6.8203-1.4062 1.4258-3.2305 2.3711-5.2109 2.6992-0.53516 0.046876-1.0742 0.046876-1.6094 0h-127.91c-4.6367-0.79687-8.0547-4.7695-8.1445-9.4727 0.125-1.1367-0.24219-2.2734-1.0039-3.125-0.76563-0.85156-1.8555-1.3359-3-1.3359-1.1406 0-2.2305 0.48438-2.9961 1.3359-0.76172 0.85156-1.1289 1.9883-1.0039 3.125 0.042968 4.1875 1.5664 8.2266 4.293 11.406 2.7305 3.1797 6.4922 5.2969 10.625 5.9727z"/>
  <path d="m385.9 361.79h-24.766c-4.3047 0.011719-8.4297 1.7305-11.473 4.7734-3.0469 3.043-4.7617 7.168-4.7734 11.473v26.047h-0.99609 0.003906c-7.5312 0.023437-13.637 6.1094-13.688 13.637 0.023438 7.5508 6.1367 13.66 13.688 13.688h1.8477-0.003907c1.1055 3.2109 3.1797 6 5.9375 7.9844 2.7539 1.9844 6.0586 3.0664 9.457 3.0977h24.77-0.003906c3.3984-0.03125 6.6992-1.1133 9.457-3.0977 2.7539-1.9844 4.8281-4.7734 5.9336-7.9844h2.418c7.543-0.050781 13.656-6.1406 13.734-13.688-0.015625-3.6289-1.4688-7.1055-4.043-9.6641-2.5781-2.5547-6.0625-3.9883-9.6914-3.9727h-1.5625v-26.047c-0.015625-4.3047-1.7305-8.4297-4.7734-11.473-3.043-3.043-7.168-4.7617-11.473-4.7734zm17.809 50.246c3.1445 0 5.7031 2.5391 5.7305 5.6836 0 1.5039-0.61719 2.9414-1.707 3.9805-1.0586 1.082-2.5078 1.6953-4.0234 1.7031h-5.5898c-2.0586-0.007812-3.7812 1.5508-3.9766 3.6016-0.4375 4.2305-3.9883 7.4531-8.2422 7.4805h-24.766c-4.2461-0.027343-7.7812-3.2578-8.1953-7.4805-0.21484-2.0391-1.9297-3.5898-3.9766-3.6016h-5.0664c-3.1406 0-5.6836-2.543-5.6836-5.6836-0.019532-1.4961 0.58203-2.9336 1.6562-3.9766 1.0625-1.082 2.5117-1.6953 4.0273-1.707h5.0195c1.0547 0 2.0664-0.41797 2.8125-1.1641 0.74609-0.74609 1.1641-1.7578 1.1641-2.8125v-29.977c0-4.5508 3.6875-8.2422 8.2422-8.2422h24.77-0.003906c2.1875 0 4.2812 0.87109 5.8281 2.4141 1.543 1.5469 2.4141 3.6406 2.4141 5.8281v30.023c0 1.0625 0.42578 2.082 1.1797 2.832 0.75781 0.74609 1.7812 1.1602 2.8438 1.1484z"/>
  <path d="m564.72 294.26c-0.58594-1.0664-1.6367-1.8047-2.8398-1.9883-1.1992-0.17969-2.4141 0.18359-3.3164 0.99219l-33.152 30.402 0.003907 0.003906c-0.98828-36.73-16.258-71.625-42.566-97.27-26.312-25.648-61.586-40.023-98.324-40.07h-16.957c-36.781 0.050781-72.086 14.457-98.402 40.156-26.316 25.695-41.562 60.648-42.488 97.418l-33.152-30.402h0.003906c-0.90234-0.80859-2.1172-1.1719-3.3164-0.99609-1.2031 0.1875-2.2539 0.92188-2.8398 1.9922-0.94531 1.6094-22.023 39.688-7.3867 65.117 7.625 13.309 23.395 20.363 46.695 21.074l-0.003906 149.04c0.015624 9.543 3.8086 18.688 10.559 25.438 6.7461 6.7461 15.895 10.543 25.434 10.555h226.99c9.5391-0.011719 18.68-3.8125 25.422-10.559 6.7383-6.75 10.523-15.898 10.523-25.434v-149.27c23.301-0.75781 39.07-7.7656 46.695-21.074 14.445-25.43-6.6289-63.508-7.5781-65.117zm-377.87 61.141c-9.7539-16.859 0-42.34 5.0664-52.664l34.668 31.684v33.859c-0.47266-0.61719-0.94531-1.2305-1.4688-1.8008v0.003906c-1.875-2.043-3.8828-3.957-6.0117-5.7305-2.1367-1.7266-4.3828-3.3086-6.7266-4.7383-2.418-1.5312-5.0078-2.7734-7.7188-3.6914 1.4219 2.4727 3.1211 4.7773 5.0664 6.8633 1.8477 2.0547 3.8438 3.9688 5.9688 5.7305 2.1406 1.7383 4.4062 3.3203 6.7695 4.7383 1.332 0.81641 2.7109 1.5586 4.1211 2.2266v0.56641c-20.176-0.66406-33.625-6.3438-39.734-17.047zm330.56 174.32h0.003906c0 7.3828-2.918 14.465-8.1133 19.707-5.1992 5.2422-12.258 8.2188-19.641 8.2812h-227.08c-7.418-0.011719-14.531-2.9648-19.777-8.2109-5.2461-5.2461-8.1992-12.359-8.2109-19.777v-202.41c0.039062-35.262 14.059-69.066 38.988-94.008 24.93-24.938 58.73-38.969 93.992-39.02h16.859c35.266 0.035157 69.078 14.066 94.008 39.008 24.934 24.941 38.949 58.754 38.977 94.02zm48.023-174.32c-6.1562 10.703-19.559 16.387-39.781 17.098v-0.57031c1.4336-0.65625 2.8242-1.4023 4.168-2.2266 2.3438-1.4297 4.5898-3.0117 6.7266-4.7344 2.1406-1.7617 4.1484-3.6797 6.0117-5.7305 1.8516-2.1172 3.457-4.4375 4.7852-6.9141-2.7031 0.91406-5.2969 2.1367-7.7188 3.6445-4.7109 2.8984-8.9844 6.457-12.691 10.562-0.51953 0.56641-0.99609 1.1836-1.5156 1.8008v-33.91l34.668-31.684c4.8281 10.277 14.82 35.707 5.3477 52.664z"/>
  <path d="m414.5 525.32c-37.508-16.672-79.469-0.71094-81.266 0-0.94922 0.73047-1.293 2.0039-0.83984 3.1094 0.45312 1.1094 1.5938 1.7734 2.7812 1.6289 0.42578 0 41.723-15.816 77.145 0 0.35938 0.066406 0.73047 0.066406 1.0898 0 1.293 0.050781 2.4336-0.83203 2.7031-2.0977 0.26953-1.2656-0.41016-2.543-1.6133-3.0195z"/>
  <path d="m434.68 453.2c0.50391 0 0.99609-0.14844 1.418-0.42578 1.2422-0.77344 1.6211-2.4062 0.85547-3.6484l-13.121-21.027c-0.35938-0.60547-0.95312-1.0391-1.6406-1.1992-0.6875-0.16016-1.4102-0.035156-2.0039 0.34766-0.60547 0.36328-1.0391 0.95312-1.207 1.6367s-0.058594 1.4062 0.30469 2.0117l13.121 20.883c0.44922 0.84375 1.3164 1.3828 2.2734 1.4219z"/>
  <path d="m329.26 427.15c-0.59375-0.38281-1.3164-0.50781-2.0039-0.34766-0.6875 0.16016-1.2773 0.59375-1.6406 1.1992l-13.117 21.121c-0.76953 1.2422-0.39062 2.875 0.85156 3.6484 0.42188 0.27734 0.91406 0.42578 1.418 0.42578 0.92969-0.007812 1.7852-0.49219 2.2734-1.2773l13.07-21.121 0.003906-0.003906c0.37891-0.58984 0.50391-1.3164 0.34375-2.0039-0.16016-0.6875-0.59375-1.2773-1.1992-1.6406z"/>
 </g>
</svg>
